Coordinates
version=1
nRows=8
nColumns=63
inDegrees=yes

Units are S.I. units (second, meters, Newtons, ...)
If the header above contains a line with 'inDegrees', this indicates whether rotational values are in degrees (yes) or radians (no).

endheader
time	pelvis_tilt	pelvis_list	pelvis_rotation	pelvis_tx	pelvis_ty	pelvis_tz	hip_flexion_r	hip_adduction_r	hip_rotation_r	knee_angle_r	knee_angle_r_beta	ankle_angle_r	subtalar_angle_r	mtp_angle_r	hip_flexion_l	hip_adduction_l	hip_rotation_l	knee_angle_l	knee_angle_l_beta	ankle_angle_l	subtalar_angle_l	mtp_angle_l	L5_S1_Flex_Ext	L5_S1_Lat_Bending	L5_S1_axial_rotation	L4_L5_Flex_Ext	L4_L5_Lat_Bending	L4_L5_axial_rotation	L3_L4_Flex_Ext	L3_L4_Lat_Bending	L3_L4_axial_rotation	L2_L3_Flex_Ext	L2_L3_Lat_Bending	L2_L3_axial_rotation	L1_L2_Flex_Ext	L1_L2_Lat_Bending	L1_L2_axial_rotation	L1_T12_Flex_Ext	L1_T12_Lat_Bending	L1_T12_axial_rotation	Abs_r3	Abs_r2	Abs_r1	Abs_t1	Abs_t2	neck_flexion	neck_bending	neck_rotation	arm_flex_r	arm_add_r	arm_rot_r	elbow_flex_r	pro_sup_r	wrist_flex_r	wrist_dev_r	arm_flex_l	arm_add_l	arm_rot_l	elbow_flex_l	pro_sup_l	wrist_flex_l	wrist_dev_l
      2.75471698	     -1.44902170	    -10.04259736	     89.17703481	      0.00821353	      0.96617153	      0.50805904	      5.92235380	     -0.68835135	      1.05915675	      8.05134832	      0.14052254	     24.90737784	      1.94475144	      0.00000000	      5.23418652	     -0.46538056	      9.84531512	      3.47578779	      0.06066394	     21.31158462	    -13.67652802	      0.00000000	     -0.20446429	      0.13389786	      0.88634568	     -0.37971064	      0.17808415	      0.94174229	     -0.33591439	      0.32555925	      0.94174229	     -0.23368224	      0.32555925	      0.77555247	     -0.18986554	      0.27304451	      0.72015587	     -0.11683090	      0.20740778	      0.66475926	     -1.46046800	      1.51467932	      4.92958877	      0.00000000	      0.00000000	     25.39999265	     -4.37329098	      0.08667982	     13.53877093	     -9.49693469	    156.08544149	      0.96145525	      3.40617543	      4.10808571	     -4.61625119	     13.98047120	     -7.13532886	    139.40331038	      1.19191385	      4.10230602	     -6.30020337	     -4.77335900
      2.77358491	     -1.74957484	    -10.71947075	     91.02740367	      0.00723342	      0.96592799	      0.51081467	      6.71873600	     -1.12057775	     -0.46006980	      8.23000933	      0.14364076	     24.78938245	      1.50778191	      0.00000000	      6.80987389	      0.00104770	     10.70656899	      4.67135818	      0.08153058	     21.62339857	    -12.71938867	      0.00000000	     -0.15128724	      0.05683193	      0.59899791	     -0.28095553	      0.07558647	      0.63643528	     -0.24854981	      0.13818117	      0.63643528	     -0.17290619	      0.13818117	      0.52412317	     -0.14048533	      0.11589168	      0.48668580	     -0.08644553	      0.08803267	      0.44924843	     -1.08062963	      0.64289421	      3.33144666	      0.00000000	      0.00000000	     25.91448462	     -3.11974704	      1.08213599	     14.71586853	     -8.98845603	    155.02341050	      1.12056724	      2.83205963	      4.57075469	     -5.21728321	     15.28300306	     -8.65087142	    135.02149726	      1.29235831	      4.03791642	     -6.39253085	     -6.03169520
      2.79245283	     -1.90998799	    -11.28471922	     92.75468645	      0.00629984	      0.96609861	      0.51309709	      7.31150543	     -1.44949939	     -1.92093758	      8.28956287	      0.14468017	     24.69176202	      1.26933008	      0.00000000	      8.12253392	      0.36749373	     11.30607203	      5.65069554	      0.09862324	     22.19699510	    -11.31732346	      0.00000000	     -0.09780160	     -0.00511442	      0.30625737	     -0.18162735	     -0.00680218	      0.32539845	     -0.16067825	     -0.01243521	      0.32539845	     -0.11177745	     -0.01243521	      0.26797520	     -0.09081856	     -0.01042933	      0.24883411	     -0.05588383	     -0.00792224	      0.22969303	     -0.69858704	     -0.05785539	      1.70331160	      0.00000000	      0.00000000	     26.16708835	     -1.81290701	      2.32461553	     16.21657259	     -8.39597427	    157.16298657	      1.01570219	      2.79191413	      3.48120371	     -6.32950515	     16.75303867	    -10.48193910	    131.01091158	      1.41924152	      4.04295605	     -6.71523470	     -7.46073170
      2.81132075	     -1.96792414	    -11.58523261	     94.15693896	      0.00546044	      0.96701452	      0.51508643	      7.60424745	     -1.69301484	     -3.41931702	      8.26952335	      0.14433041	     24.55095183	      1.59128664	      0.00000000	      9.04563956	      0.60051704	     11.01865741	      6.46354663	      0.11281017	     23.00233140	     -9.00604926	      0.00000000	     -0.07548101	     -0.04827081	      0.04658884	     -0.14017579	     -0.06420017	      0.04950064	     -0.12400776	     -0.11736564	      0.04950064	     -0.08626725	     -0.11736564	      0.04076524	     -0.07009167	     -0.09843383	      0.03785343	     -0.04312985	     -0.07477148	      0.03494163	     -0.53915333	     -0.54604903	      0.25911316	      0.00000000	      0.00000000	     26.12862342	     -0.48346421	      3.84272058	     18.16350612	     -7.75350057	    162.69425581	      0.72249241	      2.81100965	      1.12776016	     -7.82427964	     18.49543259	    -12.47718425	    126.80318384	      1.57533823	      5.07211021	     -7.42663039	     -8.91139402
      2.83018868	     -2.00244478	    -11.81296977	     95.28932426	      0.00485953	      0.96845062	      0.51690580	      7.84517093	     -1.90460982	     -4.86474581	      8.22829570	      0.14361085	     24.36643392	      2.13370010	      0.00000000	      9.76921763	      0.76550728	     10.33755489	      7.05873544	      0.12319817	     23.60252861	     -6.46840182	      0.00000000	     -0.05662498	     -0.08178416	     -0.17101191	     -0.10515825	     -0.10877293	     -0.18170016	     -0.09302918	     -0.19885001	     -0.18170016	     -0.06471669	     -0.19885001	     -0.14963542	     -0.05258196	     -0.16677426	     -0.13894718	     -0.03235551	     -0.12668366	     -0.12825893	     -0.40446657	     -0.92515877	     -0.95111695	      0.00000000	      0.00000000	     25.80964166	      0.55384922	      5.38101121	     20.39302454	     -7.00818214	    168.41808268	      0.51095022	      3.16124828	     -2.56560936	     -9.28414733	     20.46503005	    -14.58480538	    123.48167455	      1.74576571	      6.10911139	     -8.46369053	    -10.84368659
      2.84905660	     -2.04766610	    -11.95117831	     96.01352400	      0.00479351	      0.97026312	      0.51850573	      8.02677992	     -2.06832813	     -5.95688868	      8.12820688	      0.14186397	     24.18868623	      2.75337441	      0.00000000	     10.21482109	      0.88216201	      9.73849209	      7.34191361	      0.12814057	     23.74607817	     -4.62004904	      0.00000000	     -0.04449303	     -0.11185470	     -0.30248639	     -0.08262801	     -0.14876675	     -0.32139179	     -0.07309760	     -0.27196352	     -0.32139179	     -0.05085109	     -0.27196352	     -0.26467559	     -0.04131623	     -0.22809410	     -0.24577019	     -0.02542332	     -0.17326293	     -0.22686479	     -0.31780928	     -1.26532273	     -1.68233853	      0.00000000	      0.00000000	     25.26324941	      1.21493967	      6.47848743	     22.75436843	     -6.21583324	    172.51959026	      0.39144356	      3.98737065	     -7.01324342	    -10.92422357	     22.63552465	    -16.63355023	    120.89389178	      1.96520286	      6.19534360	     -9.30818814	    -13.12910323
      2.86792453	     -2.26769736	    -11.76735021	     96.38001646	      0.00499725	      0.97256537	      0.51990576	      7.88450947	     -2.34048463	     -6.70930513	      7.95691247	      0.13887432	     24.19996189	      3.40183620	      0.00000000	     10.20759762	      1.11942743	      9.15937851	      7.51949867	      0.13124001	     23.48918433	     -3.43481031	      0.00000000	     -0.08261298	     -0.15356281	     -0.34433529	     -0.15342056	     -0.20423853	     -0.36585624	     -0.13572486	     -0.37337261	     -0.36585624	     -0.09441837	     -0.37337261	     -0.30129338	     -0.07671441	     -0.31314527	     -0.27977242	     -0.04720505	     -0.23786879	     -0.25825146	     -0.59009623	     -1.73713318	     -1.91508956	      0.00000000	      0.00000000	     24.54890291	      1.60683622	      7.02314931	     25.32622773	     -5.49668861	    175.32362961	      0.30789580	      4.90044865	    -10.90212801	    -13.20995353	     25.13050695	    -18.46413821	    118.70817108	      2.13895814	      5.27196892	     -8.87728262	    -15.02872658
      2.88679245	     -2.10428136	    -11.68029182	     96.50717348	      0.00509144	      0.97460347	      0.52111988	      7.90394510	     -2.25506983	     -7.80571983	      7.73660092	      0.13502916	     24.32812896	      5.01808071	      0.00000000	     10.22686375	      0.91116026	      7.97128384	      7.50425540	      0.13097396	     23.39654486	     -1.68752299	      0.00000000	     -0.08777250	     -0.13637701	     -0.32394234	     -0.16300230	     -0.18138143	     -0.34418874	     -0.14420143	     -0.33158707	     -0.34418874	     -0.10031518	     -0.33158707	     -0.28344955	     -0.08150554	     -0.27810001	     -0.26320315	     -0.05015320	     -0.21124800	     -0.24295676	     -0.62695015	     -1.54272406	     -1.80167013	      0.00000000	      0.00000000	     23.50603302	      1.71086053	      7.98962145	     27.66411043	     -5.00591013	    177.20008065	      0.26403918	      5.19621968	    -17.78787654	    -15.12866117	     27.46102455	    -19.77259141	    115.02874119	      2.21530251	      3.57251052	     -7.20206770	    -17.61897535
